<?xml version="1.0" encoding="utf-8"?>
<!-- Generator: Adobe Illustrator 16.0.0, SVG Export Plug-In . SVG Version: 6.00 Build 0)  -->
<!DOCTYPE svg
    PUBLIC "-//W3C//DTD SVG 1.1//EN" "http://www.w3.org/Graphics/SVG/1.1/DTD/svg11.dtd">
<svg version="1.1" id="Layer_1" xmlns="http://www.w3.org/2000/svg"
    xmlns:xlink="http://www.w3.org/1999/xlink" x="0px" y="0px" width="97px"
    height="97px" viewBox="0 0 97 97" enable-background="new 0 0 97 97"
    xml:space="preserve">
    <g>
        <path fill="#f05133"
            d="M 92.7 44.4 L 52.6 4.3 c -2.3 -2.3 -6.1 -2.3 -8.4 0 l -8.3 8.3 L 46.5 23.2 c 2.5 -0.8 5.3 -0.3 7.2 1.7 c 2 2 2.5 4.8 1.7 7.3 l 10.2 10.2 c 2.5 -0.8 5.3 -0.3 7.3 1.7 c 2.8 2.8 2.8 7.2 0 10 c -2.8 2.8 -7.2 2.8 -10 0 c -2.1 -2.1 -2.6 -5.1 -1.5 -7.7 l -9.5 -9.5 v 25 c 0.7 0.3 1.3 0.8 1.9 1.3 c 2.8 2.8 2.8 7.2 0 10 c -2.8 2.7 -7.2 2.7 -10 0 c -2.8 -2.8 -2.8 -7.2 0 -10 c 0.7 -0.7 1.5 -1.2 2.3 -1.5 V 36.4 c -0.8 -0.3 -1.6 -0.9 -2.3 -1.5 c -2.1 -2.1 -2.6 -5.1 -1.5 -7.7 L 31.8 16.7 L 4.3 44.2 c -2.3 2.3 -2.3 6.1 0 8.4 l 40.1 40.1 c 2.3 2.3 6.1 2.3 8.4 0 L 92.7 52.8 C 95 50.5 95 46.7 92.7 44.4 z" />
    </g>
</svg>